STARTFONT 2.1
COMMENT METAFONT output 1995.04.13:1747
COMMENT fontid=MSBM V2.2
COMMENT codingscheme=TeX math symbols
COMMENT fontfacebyte
COMMENT jobname=msbm10
COMMENT mag=0.3
COMMENT mode=cx
COMMENT pixels_per_inch=300
COMMENT blacker=0
COMMENT fillin=0.2
COMMENT o_correction=0.6
COMMENT Checksum 88b616c8
COMMENT 
COMMENT This file is made by pktobdf using the above specified pk file.
COMMENT 
FONT -metafont-msbm10-medium-r-normal--12-120-75-75-P-76-MetaFont-FONTSPECIFIC
SIZE 12 75 75
FONTBOUNDINGBOX 29 18 -1 -7
STARTPROPERTIES 21
FONT_ASCENT 10
FONT_DESCENT 6
FOUNDRY "metafont"
FAMILY_NAME "msbm10"
WEIGHT_NAME "medium"
SLANT "r"
SETWIDTH_NAME "normal"
ADD_STYLE_NAME ""
PIXEL_SIZE 12
POINT_SIZE 120
RESOLUTOIN_X 75
RESOLUTOIN_Y 75
SPACING "P"
AVERAGE_WIDTH 76
CHARSET_REGISTRY "MetaFont"
CHARSET_ENCODING "FONTSPECIFIC"
AVG_CAPITAL_WIDTH 17
AVG_LOWERCASE_WIDTH 11
COPYRIGHT "MetaFont (public domain)"
DEVICE_FONT_NAME "msbm10"
FULLNAME "msbm10"
ENDPROPERTIES
CHARS 123
STARTCHAR Gamma
ENCODING 0
SWIDTH 795 0
DWIDTH 10 0
BBX 7 14 1 -5
BITMAP
02
0c
30
c0
c0
30
0c
02
10
fe
10
10
fe
10
ENDCHAR
STARTCHAR Delta
ENCODING 1
SWIDTH 795 0
DWIDTH 10 0
BBX 7 14 1 -5
BITMAP
80
60
18
06
06
18
60
80
10
fe
10
10
fe
10
ENDCHAR
STARTCHAR Theta
ENCODING 2
SWIDTH 795 0
DWIDTH 10 0
BBX 7 14 1 -4
BITMAP
04
04
06
0c
38
48
d0
30
2c
22
20
40
fe
40
ENDCHAR
STARTCHAR Lamdba
ENCODING 3
SWIDTH 795 0
DWIDTH 10 0
BBX 7 14 1 -4
BITMAP
04
04
84
68
18
0c
16
18
60
a0
20
40
fe
40
ENDCHAR
STARTCHAR Xi
ENCODING 4
SWIDTH 795 0
DWIDTH 10 0
BBX 7 12 1 -3
BITMAP
04
04
0e
18
68
90
70
38
26
20
40
40
ENDCHAR
STARTCHAR Pi
ENCODING 5
SWIDTH 795 0
DWIDTH 10 0
BBX 7 12 1 -3
BITMAP
04
04
c8
38
0c
12
1c
30
e0
20
40
40
ENDCHAR
STARTCHAR Sigma
ENCODING 6
SWIDTH 795 0
DWIDTH 10 0
BBX 7 12 1 -3
BITMAP
04
04
06
0a
0c
18
f0
2c
22
42
40
40
ENDCHAR
STARTCHAR Upsilon
ENCODING 7
SWIDTH 795 0
DWIDTH 10 0
BBX 7 12 1 -3
BITMAP
04
04
84
88
48
30
1e
60
a0
c0
40
40
ENDCHAR
STARTCHAR Phi
ENCODING 8
SWIDTH 795 0
DWIDTH 10 0
BBX 7 14 1 -5
BITMAP
02
0c
30
c0
c0
30
0c
02
04
fe
10
10
fe
40
ENDCHAR
STARTCHAR Psi
ENCODING 9
SWIDTH 795 0
DWIDTH 10 0
BBX 7 14 1 -5
BITMAP
80
60
18
06
06
18
60
80
04
fe
10
10
fe
40
ENDCHAR
STARTCHAR Omega
ENCODING 10
SWIDTH 795 0
DWIDTH 10 0
BBX 7 14 1 -4
BITMAP
04
04
06
0c
38
48
d0
30
2c
e2
30
4c
42
40
ENDCHAR
STARTCHAR arrowup
ENCODING 11
SWIDTH 795 0
DWIDTH 10 0
BBX 7 14 1 -4
BITMAP
04
04
84
68
18
0c
16
18
60
a6
38
60
c0
40
ENDCHAR
STARTCHAR arrowdown
ENCODING 12
SWIDTH 795 0
DWIDTH 10 0
BBX 7 12 1 -4
BITMAP
02
0c
30
c0
c0
30
0c
02
00
08
fe
20
ENDCHAR
STARTCHAR quotesingle
ENCODING 13
SWIDTH 795 0
DWIDTH 10 0
BBX 7 12 1 -4
BITMAP
80
60
18
06
06
18
60
80
00
08
fe
20
ENDCHAR
STARTCHAR exclamdown
ENCODING 14
SWIDTH 795 0
DWIDTH 10 0
BBX 7 14 1 -4
BITMAP
04
04
06
0a
0c
18
f0
1c
22
22
20
40
fe
40
ENDCHAR
STARTCHAR questiondown
ENCODING 15
SWIDTH 795 0
DWIDTH 10 0
BBX 7 14 1 -4
BITMAP
04
04
84
88
48
38
1e
70
a0
a0
20
40
fe
40
ENDCHAR
STARTCHAR dotlessi
ENCODING 16
SWIDTH 795 0
DWIDTH 10 0
BBX 7 15 1 -6
BITMAP
02
02
04
18
f0
0c
02
02
08
08
72
92
9c
20
20
ENDCHAR
STARTCHAR dotlessj
ENCODING 17
SWIDTH 795 0
DWIDTH 10 0
BBX 7 15 1 -6
BITMAP
80
80
40
30
1e
60
80
80
08
08
72
92
9c
20
20
ENDCHAR
STARTCHAR grave
ENCODING 18
SWIDTH 795 0
DWIDTH 10 0
BBX 7 15 1 -6
BITMAP
02
0c
30
c0
c0
30
0c
02
08
08
72
92
9c
20
20
ENDCHAR
STARTCHAR acute
ENCODING 19
SWIDTH 795 0
DWIDTH 10 0
BBX 7 15 1 -6
BITMAP
80
60
18
06
06
18
60
80
08
08
72
92
9c
20
20
ENDCHAR
STARTCHAR caron
ENCODING 20
SWIDTH 795 0
DWIDTH 10 0
BBX 7 16 1 -5
BITMAP
04
04
06
0c
38
48
d0
30
1c
12
20
fe
20
40
fe
40
ENDCHAR
STARTCHAR breve
ENCODING 21
SWIDTH 795 0
DWIDTH 10 0
BBX 7 16 1 -5
BITMAP
04
04
84
68
18
0c
16
18
70
90
20
fe
20
40
fe
40
ENDCHAR
STARTCHAR macron
ENCODING 22
SWIDTH 795 0
DWIDTH 10 0
BBX 7 14 1 -5
BITMAP
02
02
04
78
f8
04
02
02
04
fe
10
10
fe
40
ENDCHAR
STARTCHAR ring
ENCODING 23
SWIDTH 795 0
DWIDTH 10 0
BBX 7 14 1 -5
BITMAP
80
80
40
3c
3e
40
80
80
04
fe
10
10
fe
40
ENDCHAR
STARTCHAR cedilla
ENCODING 24
SWIDTH 795 0
DWIDTH 10 0
BBX 7 15 1 -6
BITMAP
02
02
0c
f0
0c
02
02
08
6a
9a
9c
72
b2
ac
20
ENDCHAR
STARTCHAR germandbls
ENCODING 25
SWIDTH 795 0
DWIDTH 10 0
BBX 7 15 1 -6
BITMAP
80
80
60
1e
60
80
80
08
6a
9a
9c
72
b2
ac
20
ENDCHAR
STARTCHAR ae
ENCODING 26
SWIDTH 795 0
DWIDTH 10 0
BBX 7 15 1 -6
BITMAP
02
0c
30
c0
60
18
06
08
6a
92
9c
72
92
ac
20
ENDCHAR
STARTCHAR oe
ENCODING 27
SWIDTH 795 0
DWIDTH 10 0
BBX 7 15 1 -6
BITMAP
80
60
18
06
0c
30
c0
08
6a
92
9c
72
92
ac
20
ENDCHAR
STARTCHAR oslash
ENCODING 28
SWIDTH 795 0
DWIDTH 10 0
BBX 7 7 1 0
BITMAP
04
08
6a
fe
bc
20
40
ENDCHAR
STARTCHAR AE
ENCODING 29
SWIDTH 795 0
DWIDTH 10 0
BBX 7 10 1 -2
BITMAP
04
66
9a
8c
10
10
fe
20
40
fe
ENDCHAR
STARTCHAR OE
ENCODING 30
SWIDTH 875 0
DWIDTH 11 0
BBX 10 11 0 -2
BITMAP
0040
0080
0100
0100
0200
0400
0800
1000
2000
4000
8000
ENDCHAR
STARTCHAR Oslash
ENCODING 31
SWIDTH 875 0
DWIDTH 11 0
BBX 10 11 0 -2
BITMAP
8000
4000
2000
1000
0800
0400
0200
0100
0100
0080
0040
ENDCHAR
STARTCHAR tilde
ENCODING 32
SWIDTH 795 0
DWIDTH 10 0
BBX 7 12 1 -4
BITMAP
3e
40
80
80
80
80
48
3e
10
10
fe
20
ENDCHAR
STARTCHAR exclam
ENCODING 33
SWIDTH 795 0
DWIDTH 10 0
BBX 7 12 1 -4
BITMAP
f8
04
02
02
02
02
14
f8
20
40
fe
80
ENDCHAR
STARTCHAR quotedblright
ENCODING 34
SWIDTH 795 0
DWIDTH 10 0
BBX 7 15 1 -5
BITMAP
02
3e
44
88
88
88
90
50
3e
20
20
fe
40
80
fe
ENDCHAR
STARTCHAR numbersign
ENCODING 35
SWIDTH 795 0
DWIDTH 10 0
BBX 7 15 1 -5
BITMAP
02
fc
04
0a
0a
0a
12
14
f8
20
20
fe
40
80
fe
ENDCHAR
STARTCHAR dollar
ENCODING 36
SWIDTH 795 0
DWIDTH 10 0
BBX 7 17 1 -7
BITMAP
3e
40
80
80
80
80
40
3e
00
04
04
fe
10
10
fe
40
40
ENDCHAR
STARTCHAR percent
ENCODING 37
SWIDTH 795 0
DWIDTH 10 0
BBX 7 17 1 -7
BITMAP
f8
04
02
02
02
02
04
f8
00
04
04
fe
10
10
fe
40
40
ENDCHAR
STARTCHAR ampersand
ENCODING 38
SWIDTH 795 0
DWIDTH 10 0
BBX 7 15 1 -6
BITMAP
3e
40
80
80
80
80
42
3e
04
08
fe
10
10
fe
20
ENDCHAR
STARTCHAR quoteright
ENCODING 39
SWIDTH 795 0
DWIDTH 10 0
BBX 7 15 1 -6
BITMAP
f8
04
02
02
02
02
14
f8
20
20
fe
40
40
fe
80
ENDCHAR
STARTCHAR parenleft
ENCODING 40
SWIDTH 795 0
DWIDTH 10 0
BBX 7 12 1 -4
BITMAP
3e
40
80
80
80
80
40
3e
00
08
fe
20
ENDCHAR
STARTCHAR parenright
ENCODING 41
SWIDTH 795 0
DWIDTH 10 0
BBX 7 12 1 -4
BITMAP
f8
04
02
02
02
02
04
f8
00
08
fe
20
ENDCHAR
STARTCHAR asterisk
ENCODING 42
SWIDTH 795 0
DWIDTH 10 0
BBX 7 14 1 -4
BITMAP
04
04
3e
48
88
88
90
90
60
3e
20
40
fe
40
ENDCHAR
STARTCHAR plus
ENCODING 43
SWIDTH 795 0
DWIDTH 10 0
BBX 7 14 1 -4
BITMAP
04
04
fc
0c
0a
0a
12
12
24
f8
20
40
fe
40
ENDCHAR
STARTCHAR comma
ENCODING 44
SWIDTH 477 0
DWIDTH 6 0
BBX 5 11 0 -2
BITMAP
88
88
88
88
98
a8
a8
c8
88
88
88
ENDCHAR
STARTCHAR hyphen
ENCODING 45
SWIDTH 238 0
DWIDTH 3 0
BBX 2 12 0 -3
BITMAP
40
40
40
40
c0
c0
40
40
40
40
40
40
ENDCHAR
STARTCHAR period
ENCODING 46
SWIDTH 238 0
DWIDTH 3 0
BBX 2 5 0 0
BITMAP
40
40
c0
40
40
ENDCHAR
STARTCHAR slash
ENCODING 47
SWIDTH 397 0
DWIDTH 5 0
BBX 4 5 0 0
BITMAP
70
60
60
e0
60
ENDCHAR
STARTCHAR 0
ENCODING 48
SWIDTH 636 0
DWIDTH 8 0
BBX 7 9 -1 0
BITMAP
22
22
24
28
3e
30
20
60
a0
ENDCHAR
STARTCHAR 1
ENCODING 49
SWIDTH 716 0
DWIDTH 9 0
BBX 8 9 -1 0
BITMAP
25
26
26
24
2f
34
24
64
a4
ENDCHAR
STARTCHAR 2
ENCODING 50
SWIDTH 636 0
DWIDTH 8 0
BBX 7 9 -1 0
BITMAP
22
22
3e
28
30
3e
20
60
a0
ENDCHAR
STARTCHAR 3
ENCODING 51
SWIDTH 716 0
DWIDTH 9 0
BBX 8 9 -1 0
BITMAP
25
26
27
24
2c
34
27
64
a4
ENDCHAR
STARTCHAR 4
ENCODING 52
SWIDTH 795 0
DWIDTH 10 0
BBX 7 14 1 -4
BITMAP
04
04
84
e8
98
8e
96
98
a0
e0
20
40
fe
40
ENDCHAR
STARTCHAR 5
ENCODING 53
SWIDTH 795 0
DWIDTH 10 0
BBX 6 14 2 -4
BITMAP
08
08
0c
1c
34
d4
a4
64
5c
44
40
80
fc
80
ENDCHAR
STARTCHAR 6
ENCODING 54
SWIDTH 795 0
DWIDTH 10 0
BBX 6 12 2 -3
BITMAP
08
08
14
1c
34
e4
a4
64
5c
44
80
80
ENDCHAR
STARTCHAR 7
ENCODING 55
SWIDTH 795 0
DWIDTH 10 0
BBX 7 12 1 -3
BITMAP
04
04
88
e8
98
96
96
b8
a0
e0
40
40
ENDCHAR
STARTCHAR 8
ENCODING 56
SWIDTH 954 0
DWIDTH 12 0
BBX 9 5 1 1
BITMAP
2400
4400
ff80
5000
3000
ENDCHAR
STARTCHAR 9
ENCODING 57
SWIDTH 954 0
DWIDTH 12 0
BBX 9 5 1 1
BITMAP
0600
0500
ff80
1100
1200
ENDCHAR
STARTCHAR colon
ENCODING 58
SWIDTH 954 0
DWIDTH 12 0
BBX 8 7 2 0
BITMAP
24
3f
c8
88
48
3f
30
ENDCHAR
STARTCHAR semicolon
ENCODING 59
SWIDTH 954 0
DWIDTH 12 0
BBX 8 7 1 0
BITMAP
0c
fc
13
11
22
fc
24
ENDCHAR
STARTCHAR less
ENCODING 60
SWIDTH 954 0
DWIDTH 12 0
BBX 7 9 2 -1
BITMAP
08
28
7c
92
92
54
7c
28
20
ENDCHAR
STARTCHAR equal
ENCODING 61
SWIDTH 954 0
DWIDTH 12 0
BBX 9 5 1 1
BITMAP
2600
4500
ff80
5100
3200
ENDCHAR
STARTCHAR greater
ENCODING 62
SWIDTH 795 0
DWIDTH 10 0
BBX 7 7 1 0
BITMAP
18
44
28
fe
28
44
18
ENDCHAR
STARTCHAR question
ENCODING 63
SWIDTH 795 0
DWIDTH 10 0
BBX 7 7 1 0
BITMAP
3a
44
8a
92
a2
44
b8
ENDCHAR
STARTCHAR at
ENCODING 64
SWIDTH 556 0
DWIDTH 7 0
BBX 4 13 1 -2
BITMAP
20
20
f0
30
30
30
f0
50
50
50
f0
40
40
ENDCHAR
STARTCHAR A
ENCODING 65
SWIDTH 716 0
DWIDTH 9 0
BBX 9 9 0 0
BITMAP
0800
1800
1400
1400
3a00
3a00
3a00
5500
ff80
ENDCHAR
STARTCHAR B
ENCODING 66
SWIDTH 556 0
DWIDTH 7 0
BBX 7 9 0 0
BITMAP
fc
54
54
78
5c
52
52
52
fc
ENDCHAR
STARTCHAR C
ENCODING 67
SWIDTH 636 0
DWIDTH 8 0
BBX 9 9 0 0
BITMAP
0f00
3f80
5380
9100
9000
9000
4880
3780
0f00
ENDCHAR
STARTCHAR D
ENCODING 68
SWIDTH 716 0
DWIDTH 9 0
BBX 9 9 0 0
BITMAP
fe00
5500
5480
5480
5480
5480
5480
5500
fe00
ENDCHAR
STARTCHAR E
ENCODING 69
SWIDTH 636 0
DWIDTH 8 0
BBX 8 9 0 0
BITMAP
fe
56
52
50
50
50
51
52
fe
ENDCHAR
STARTCHAR F
ENCODING 70
SWIDTH 636 0
DWIDTH 8 0
BBX 8 9 0 0
BITMAP
ff
5f
5b
58
58
58
58
50
f8
ENDCHAR
STARTCHAR G
ENCODING 71
SWIDTH 795 0
DWIDTH 10 0
BBX 9 9 0 0
BITMAP
0f00
3f80
5380
9100
9f80
9500
5500
3d00
0f00
ENDCHAR
STARTCHAR H
ENCODING 72
SWIDTH 795 0
DWIDTH 10 0
BBX 8 9 1 0
BITMAP
ff
5a
5a
5a
5a
5a
5a
5a
ff
ENDCHAR
STARTCHAR I
ENCODING 73
SWIDTH 397 0
DWIDTH 5 0
BBX 5 9 1 0
BITMAP
f8
50
50
50
50
50
50
50
f8
ENDCHAR
STARTCHAR J
ENCODING 74
SWIDTH 477 0
DWIDTH 6 0
BBX 5 10 0 -1
BITMAP
f8
50
50
50
50
50
50
50
f0
e0
ENDCHAR
STARTCHAR K
ENCODING 75
SWIDTH 795 0
DWIDTH 10 0
BBX 10 9 1 0
BITMAP
ff00
5c00
5400
5c00
5a00
5a00
5500
5300
f7c0
ENDCHAR
STARTCHAR L
ENCODING 76
SWIDTH 636 0
DWIDTH 8 0
BBX 8 9 0 0
BITMAP
f8
50
50
50
50
51
52
52
fe
ENDCHAR
STARTCHAR M
ENCODING 77
SWIDTH 954 0
DWIDTH 12 0
BBX 11 10 0 0
BITMAP
6000
79e0
6940
6b40
6b40
6740
7740
7540
7540
ffe0
ENDCHAR
STARTCHAR N
ENCODING 78
SWIDTH 716 0
DWIDTH 9 0
BBX 8 9 1 0
BITMAP
ff
4e
6e
76
72
6a
66
66
f2
ENDCHAR
STARTCHAR O
ENCODING 79
SWIDTH 795 0
DWIDTH 10 0
BBX 10 9 0 0
BITMAP
1e00
7380
9240
9240
9240
9240
9240
7380
1e00
ENDCHAR
STARTCHAR P
ENCODING 80
SWIDTH 636 0
DWIDTH 8 0
BBX 8 9 0 0
BITMAP
fe
59
5f
50
50
50
50
50
f8
ENDCHAR
STARTCHAR Q
ENCODING 81
SWIDTH 795 0
DWIDTH 10 0
BBX 10 11 0 -2
BITMAP
1e00
7380
9240
9240
9240
9240
9240
7380
1e00
0c00
0780
ENDCHAR
STARTCHAR R
ENCODING 82
SWIDTH 716 0
DWIDTH 9 0
BBX 9 9 0 0
BITMAP
fe00
5900
5f00
5400
5400
5600
5500
5500
ff80
ENDCHAR
STARTCHAR S
ENCODING 83
SWIDTH 556 0
DWIDTH 7 0
BBX 7 9 0 0
BITMAP
3c
44
64
5c
26
9a
86
c6
fc
ENDCHAR
STARTCHAR T
ENCODING 84
SWIDTH 636 0
DWIDTH 8 0
BBX 8 9 1 0
BITMAP
ff
ab
a9
28
28
28
28
28
7c
ENDCHAR
STARTCHAR U
ENCODING 85
SWIDTH 716 0
DWIDTH 9 0
BBX 9 9 0 0
BITMAP
ff80
5300
5300
5300
5300
5300
5300
2e00
1c00
ENDCHAR
STARTCHAR V
ENCODING 86
SWIDTH 716 0
DWIDTH 9 0
BBX 9 9 0 0
BITMAP
ff80
5500
2e00
2e00
2e00
1400
1400
0800
0800
ENDCHAR
STARTCHAR W
ENCODING 87
SWIDTH 1034 0
DWIDTH 13 0
BBX 10 9 1 0
BITMAP
ffc0
aac0
a5c0
6d80
5c80
5280
5280
3100
2100
ENDCHAR
STARTCHAR X
ENCODING 88
SWIDTH 716 0
DWIDTH 9 0
BBX 10 9 -1 0
BITMAP
ffc0
2a80
1700
1200
0a00
1500
1c80
3280
ffc0
ENDCHAR
STARTCHAR Y
ENCODING 89
SWIDTH 716 0
DWIDTH 9 0
BBX 8 9 1 0
BITMAP
fe
52
2a
26
12
0a
0a
0a
1f
ENDCHAR
STARTCHAR Z
ENCODING 90
SWIDTH 636 0
DWIDTH 8 0
BBX 7 9 1 0
BITMAP
fc
e4
a8
28
50
52
96
a4
fc
ENDCHAR
STARTCHAR bracketleft
ENCODING 91
SWIDTH 1909 0
DWIDTH 24 0
BBX 23 3 0 7
BITMAP
007c00
0f83e0
f8003e
ENDCHAR
STARTCHAR leftdblquote
ENCODING 92
SWIDTH 2307 0
DWIDTH 29 0
BBX 28 3 0 7
BITMAP
001f8000
07e07e00
fc0003f0
ENDCHAR
STARTCHAR bracketright
ENCODING 93
SWIDTH 1909 0
DWIDTH 24 0
BBX 23 4 0 6
BITMAP
03e006
3ff83e
f83ff8
c00f80
ENDCHAR
STARTCHAR circumflex
ENCODING 94
SWIDTH 2307 0
DWIDTH 29 0
BBX 28 4 0 7
BITMAP
03f80030
3fff03f0
fc0fffc0
c001fc00
ENDCHAR
STARTCHAR leftquote
ENCODING 96
SWIDTH 556 0
DWIDTH 7 0
BBX 4 9 1 0
BITMAP
10
10
10
10
30
10
10
10
f0
ENDCHAR
STARTCHAR a
ENCODING 97
SWIDTH 636 0
DWIDTH 8 0
BBX 5 9 1 0
BITMAP
60
90
08
08
c8
88
88
90
60
ENDCHAR
STARTCHAR f
ENCODING 102
SWIDTH 716 0
DWIDTH 9 0
BBX 6 9 1 0
BITMAP
cc
cc
48
84
84
84
84
cc
78
ENDCHAR
STARTCHAR g
ENCODING 103
SWIDTH 556 0
DWIDTH 7 0
BBX 4 9 1 0
BITMAP
d0
f0
90
70
90
90
90
90
60
ENDCHAR
STARTCHAR h
ENCODING 104
SWIDTH 795 0
DWIDTH 10 0
BBX 7 6 1 0
BITMAP
fe
00
02
e2
92
8c
ENDCHAR
STARTCHAR i
ENCODING 105
SWIDTH 636 0
DWIDTH 8 0
BBX 6 10 1 0
BITMAP
f0
78
08
08
08
08
08
08
08
fc
ENDCHAR
STARTCHAR j
ENCODING 106
SWIDTH 477 0
DWIDTH 6 0
BBX 4 10 1 0
BITMAP
e0
60
20
20
30
30
30
30
30
f0
ENDCHAR
STARTCHAR k
ENCODING 107
SWIDTH 636 0
DWIDTH 8 0
BBX 6 10 1 0
BITMAP
f8
78
08
08
0c
0c
0c
0c
0c
0c
ENDCHAR
STARTCHAR l
ENCODING 108
SWIDTH 795 0
DWIDTH 10 0
BBX 7 7 1 0
BITMAP
06
18
60
84
60
18
06
ENDCHAR
STARTCHAR m
ENCODING 109
SWIDTH 795 0
DWIDTH 10 0
BBX 7 7 1 0
BITMAP
c0
30
0c
62
0c
30
c0
ENDCHAR
STARTCHAR n
ENCODING 110
SWIDTH 795 0
DWIDTH 10 0
BBX 5 5 2 1
BITMAP
88
d0
a0
d0
88
ENDCHAR
STARTCHAR o
ENCODING 111
SWIDTH 795 0
DWIDTH 10 0
BBX 5 5 2 1
BITMAP
88
58
28
58
88
ENDCHAR
STARTCHAR p
ENCODING 112
SWIDTH 238 0
DWIDTH 3 0
BBX 1 5 1 0
BITMAP
80
80
80
80
80
ENDCHAR
STARTCHAR q
ENCODING 113
SWIDTH 397 0
DWIDTH 5 0
BBX 2 5 1 0
BITMAP
c0
c0
c0
c0
c0
ENDCHAR
STARTCHAR r
ENCODING 114
SWIDTH 795 0
DWIDTH 10 0
BBX 7 5 1 0
BITMAP
80
60
10
0c
02
ENDCHAR
STARTCHAR s
ENCODING 115
SWIDTH 795 0
DWIDTH 10 0
BBX 7 3 1 2
BITMAP
62
fe
9c
ENDCHAR
STARTCHAR t
ENCODING 116
SWIDTH 795 0
DWIDTH 10 0
BBX 7 6 1 0
BITMAP
62
fe
9c
62
fe
9c
ENDCHAR
STARTCHAR u
ENCODING 117
SWIDTH 795 0
DWIDTH 10 0
BBX 7 9 1 -2
BITMAP
62
92
8c
62
92
8c
00
00
fe
ENDCHAR
STARTCHAR v
ENCODING 118
SWIDTH 795 0
DWIDTH 10 0
BBX 7 14 1 -5
BITMAP
80
80
60
1e
60
80
80
00
62
92
8c
62
92
8c
ENDCHAR
STARTCHAR w
ENCODING 119
SWIDTH 795 0
DWIDTH 10 0
BBX 7 14 1 -5
BITMAP
02
02
0c
f0
0c
02
02
00
62
92
8c
62
92
8c
ENDCHAR
STARTCHAR x
ENCODING 120
SWIDTH 954 0
DWIDTH 12 0
BBX 11 5 0 0
BITMAP
1f80
2040
5040
e020
4020
ENDCHAR
STARTCHAR y
ENCODING 121
SWIDTH 954 0
DWIDTH 12 0
BBX 11 5 0 0
BITMAP
3f00
4080
4140
80e0
8040
ENDCHAR
STARTCHAR z
ENCODING 122
SWIDTH 795 0
DWIDTH 10 0
BBX 7 8 1 -1
BITMAP
7e
70
70
70
e0
e0
e0
e0
ENDCHAR
STARTCHAR endash
ENCODING 123
SWIDTH 636 0
DWIDTH 8 0
BBX 7 5 1 0
BITMAP
66
3c
38
f0
98
ENDCHAR
STARTCHAR emdash
ENCODING 124
SWIDTH 556 0
DWIDTH 7 0
BBX 7 9 0 0
BITMAP
f0
50
50
5e
5c
54
5c
5a
fe
ENDCHAR
STARTCHAR quotedbl
ENCODING 125
SWIDTH 556 0
DWIDTH 7 0
BBX 5 9 1 0
BITMAP
60
38
e0
40
70
50
50
b0
b0
ENDCHAR
STARTCHAR hungarumlaut
ENCODING 126
SWIDTH 556 0
DWIDTH 7 0
BBX 4 9 1 0
BITMAP
60
f0
20
40
70
50
50
b0
b0
ENDCHAR
STARTCHAR dieresis
ENCODING 127
SWIDTH 397 0
DWIDTH 5 0
BBX 3 5 1 0
BITMAP
e0
20
20
60
c0
ENDCHAR
ENDFONT
